<svg width="64" height="64" viewBox="0 0 64 64" fill="none" xmlns="http://www.w3.org/2000/svg">
<circle cx="32" cy="32" r="32" fill="#7291C0"/>
<path d="M4.56818 35.0795C4.19318 35.0795 3.8589 35.0152 3.56534 34.8864C3.27367 34.7576 3.04167 34.5786 2.86932 34.3494C2.69886 34.1184 2.60606 33.8504 2.59091 33.5455H3.30682C3.32197 33.733 3.38636 33.8949 3.5 34.0312C3.61364 34.1657 3.76231 34.2699 3.94602 34.3438C4.12973 34.4176 4.33333 34.4545 4.55682 34.4545C4.80682 34.4545 5.02841 34.411 5.22159 34.3239C5.41477 34.2367 5.56629 34.1155 5.67614 33.9602C5.78598 33.8049 5.84091 33.625 5.84091 33.4205C5.84091 33.2064 5.78788 33.018 5.68182 32.8551C5.57576 32.6903 5.42045 32.5616 5.21591 32.4688C5.01136 32.3759 4.76136 32.3295 4.46591 32.3295H4V31.7045H4.46591C4.69697 31.7045 4.89962 31.6629 5.07386 31.5795C5.25 31.4962 5.38731 31.3788 5.4858 31.2273C5.58617 31.0758 5.63636 30.8977 5.63636 30.6932C5.63636 30.4962 5.5928 30.3248 5.50568 30.179C5.41856 30.0331 5.29545 29.9195 5.13636 29.8381C4.97917 29.7566 4.79356 29.7159 4.57955 29.7159C4.37879 29.7159 4.18939 29.7528 4.01136 29.8267C3.83523 29.8987 3.69129 30.0038 3.57955 30.142C3.4678 30.2784 3.4072 30.4432 3.39773 30.6364H2.71591C2.72727 30.3314 2.81913 30.0644 2.99148 29.8352C3.16383 29.6042 3.3892 29.4242 3.66761 29.2955C3.94792 29.1667 4.25568 29.1023 4.59091 29.1023C4.95076 29.1023 5.25947 29.1752 5.51705 29.321C5.77462 29.465 5.97254 29.6553 6.1108 29.892C6.24905 30.1288 6.31818 30.3845 6.31818 30.6591C6.31818 30.9867 6.23201 31.2661 6.05966 31.4972C5.8892 31.7282 5.6572 31.8883 5.36364 31.9773V32.0227C5.73106 32.0833 6.01799 32.2396 6.22443 32.4915C6.43087 32.7415 6.53409 33.0511 6.53409 33.4205C6.53409 33.7367 6.44792 34.0208 6.27557 34.2727C6.10511 34.5227 5.87216 34.7197 5.5767 34.8636C5.28125 35.0076 4.94508 35.0795 4.56818 35.0795ZM8.20739 30.6364L9.25284 32.4205L10.2983 30.6364H11.071L9.66193 32.8182L11.071 35H10.2983L9.25284 33.3068L8.20739 35H7.43466L8.82102 32.8182L7.43466 30.6364H8.20739Z" fill="#F3F3F8"/>
<path d="M56.3864 31H55.6818C55.6402 30.7973 55.5672 30.6193 55.4631 30.4659C55.3608 30.3125 55.2358 30.1837 55.0881 30.0795C54.9422 29.9735 54.7803 29.8939 54.6023 29.8409C54.4242 29.7879 54.2386 29.7614 54.0455 29.7614C53.6932 29.7614 53.3741 29.8504 53.0881 30.0284C52.804 30.2064 52.5777 30.4688 52.4091 30.8153C52.2424 31.1619 52.1591 31.5871 52.1591 32.0909C52.1591 32.5947 52.2424 33.0199 52.4091 33.3665C52.5777 33.7131 52.804 33.9754 53.0881 34.1534C53.3741 34.3314 53.6932 34.4205 54.0455 34.4205C54.2386 34.4205 54.4242 34.3939 54.6023 34.3409C54.7803 34.2879 54.9422 34.2093 55.0881 34.1051C55.2358 33.9991 55.3608 33.8693 55.4631 33.7159C55.5672 33.5606 55.6402 33.3826 55.6818 33.1818H56.3864C56.3333 33.4792 56.2367 33.7453 56.0966 33.9801C55.9564 34.215 55.7822 34.4148 55.5739 34.5795C55.3655 34.7424 55.1316 34.8665 54.8722 34.9517C54.6146 35.0369 54.339 35.0795 54.0455 35.0795C53.5492 35.0795 53.108 34.9583 52.7216 34.7159C52.3352 34.4735 52.0313 34.1288 51.8097 33.6818C51.5881 33.2348 51.4773 32.7045 51.4773 32.0909C51.4773 31.4773 51.5881 30.947 51.8097 30.5C52.0313 30.053 52.3352 29.7083 52.7216 29.4659C53.108 29.2235 53.5492 29.1023 54.0455 29.1023C54.339 29.1023 54.6146 29.1449 54.8722 29.2301C55.1316 29.3153 55.3655 29.4403 55.5739 29.6051C55.7822 29.768 55.9564 29.9669 56.0966 30.2017C56.2367 30.4347 56.3333 30.7008 56.3864 31ZM57.9339 30.6364L58.9794 32.4205L60.0249 30.6364H60.7976L59.3885 32.8182L60.7976 35H60.0249L58.9794 33.3068L57.9339 35H57.1612L58.5476 32.8182L57.1612 30.6364H57.9339Z" fill="#F3F3F8"/>
<path d="M31.0568 55.1818V61H30.3523V55.8068H27.4205V61H26.7159V55.1818H31.0568ZM31.9212 62.25V60.375H32.2848C32.3738 60.2822 32.4505 60.1818 32.5149 60.0739C32.5793 59.9659 32.6352 59.8381 32.6825 59.6903C32.7318 59.5407 32.7734 59.3589 32.8075 59.1449C32.8416 58.929 32.8719 58.6686 32.8984 58.3636L33.0462 56.6364H35.8189V60.375H36.4893V62.25H35.8189V61H32.5916V62.25H31.9212ZM33.0462 60.375H35.1484V57.2614H33.6712L33.5575 58.3636C33.5102 58.8201 33.4515 59.2187 33.3814 59.5597C33.3113 59.9006 33.1996 60.1723 33.0462 60.375Z" fill="#F3F3F8"/>
<path d="M31.0568 2.18182V8H30.3523V2.80682H27.4205V8H26.7159V2.18182H31.0568ZM35.3075 5.51136V6.13636H32.8984V5.51136H35.3075ZM33.0575 3.63636V8H32.3871V3.63636H33.0575ZM35.8189 3.63636V8H35.1484V3.63636H35.8189Z" fill="#F3F3F8"/>
<path d="M11.1605 11.3636V15H10.7202V11.7543H8.88778V15H8.44744V11.3636H11.1605ZM13.8172 13.4446V13.8352H12.3115V13.4446H13.8172ZM12.411 12.2727V15H11.9919V12.2727H12.411ZM14.1368 12.2727V15H13.7178V12.2727H14.1368ZM16.1237 15.0497C15.8893 15.0497 15.6804 15.0095 15.4969 14.929C15.3146 14.8485 15.1696 14.7366 15.0619 14.5934C14.9553 14.449 14.8973 14.2815 14.8879 14.0909H15.3353C15.3448 14.2081 15.385 14.3093 15.4561 14.3945C15.5271 14.4786 15.62 14.5437 15.7348 14.5898C15.8496 14.636 15.9769 14.6591 16.1166 14.6591C16.2728 14.6591 16.4113 14.6319 16.532 14.5774C16.6528 14.523 16.7475 14.4472 16.8161 14.3501C16.8848 14.2531 16.9191 14.1406 16.9191 14.0128C16.9191 13.879 16.886 13.7612 16.8197 13.6594C16.7534 13.5565 16.6563 13.476 16.5285 13.418C16.4007 13.36 16.2444 13.331 16.0597 13.331H15.7686V12.9403H16.0597C16.2042 12.9403 16.3308 12.9143 16.4397 12.8622C16.5498 12.8101 16.6356 12.7367 16.6972 12.642C16.7599 12.5473 16.7913 12.4361 16.7913 12.3082C16.7913 12.1851 16.7641 12.078 16.7096 11.9869C16.6552 11.8957 16.5782 11.8247 16.4788 11.7738C16.3805 11.7229 16.2645 11.6974 16.1308 11.6974C16.0053 11.6974 15.8869 11.7205 15.7757 11.7667C15.6656 11.8117 15.5756 11.8774 15.5058 11.9638C15.4359 12.049 15.3981 12.152 15.3921 12.2727H14.966C14.9731 12.0821 15.0305 11.9152 15.1382 11.772C15.2459 11.6276 15.3868 11.5152 15.5608 11.4347C15.736 11.3542 15.9284 11.3139 16.1379 11.3139C16.3628 11.3139 16.5557 11.3595 16.7167 11.4506C16.8777 11.5406 17.0014 11.6596 17.0878 11.8075C17.1742 11.9555 17.2174 12.1153 17.2174 12.2869C17.2174 12.4917 17.1636 12.6663 17.0558 12.8107C16.9493 12.9551 16.8043 13.0552 16.6208 13.1108V13.1392C16.8505 13.1771 17.0298 13.2747 17.1588 13.4322C17.2878 13.5884 17.3524 13.782 17.3524 14.0128C17.3524 14.2105 17.2985 14.388 17.1908 14.5455C17.0843 14.7017 16.9387 14.8248 16.754 14.9148C16.5693 15.0047 16.3592 15.0497 16.1237 15.0497ZM18.3982 12.2727L19.0516 13.3878L19.705 12.2727H20.1879L19.3073 13.6364L20.1879 15H19.705L19.0516 13.9418L18.3982 15H17.9152L18.7817 13.6364L17.9152 12.2727H18.3982Z" fill="#F3F3F8"/>
<path d="M11.1605 48.3636V52H10.7202V48.7543H8.88778V52H8.44744V48.3636H11.1605ZM11.7007 52.7812V51.6094H11.928C11.9836 51.5514 12.0316 51.4886 12.0718 51.4212C12.1121 51.3537 12.147 51.2738 12.1766 51.1815C12.2074 51.0879 12.2334 50.9743 12.2547 50.8406C12.276 50.7056 12.295 50.5429 12.3115 50.3523L12.4039 49.2727H14.1368V51.6094H14.5558V52.7812H14.1368V52H12.1198V52.7812H11.7007ZM12.4039 51.6094H13.7178V49.6634H12.7945L12.7235 50.3523C12.6939 50.6375 12.6572 50.8867 12.6134 51.0998C12.5696 51.3129 12.4997 51.4827 12.4039 51.6094ZM16.3336 52.0497C16.0993 52.0497 15.8903 52.0095 15.7069 51.929C15.5246 51.8485 15.3796 51.7366 15.2718 51.5934C15.1653 51.449 15.1073 51.2815 15.0978 51.0909H15.5453C15.5547 51.2081 15.595 51.3093 15.666 51.3945C15.737 51.4786 15.83 51.5437 15.9448 51.5898C16.0596 51.636 16.1868 51.6591 16.3265 51.6591C16.4828 51.6591 16.6213 51.6319 16.742 51.5774C16.8627 51.523 16.9574 51.4472 17.0261 51.3501C17.0948 51.2531 17.1291 51.1406 17.1291 51.0128C17.1291 50.879 17.0959 50.7612 17.0297 50.6594C16.9634 50.5565 16.8663 50.476 16.7385 50.418C16.6106 50.36 16.4544 50.331 16.2697 50.331H15.9785V49.9403H16.2697C16.4141 49.9403 16.5408 49.9143 16.6497 49.8622C16.7598 49.8101 16.8456 49.7367 16.9071 49.642C16.9699 49.5473 17.0012 49.4361 17.0012 49.3082C17.0012 49.1851 16.974 49.078 16.9196 48.9869C16.8651 48.8957 16.7882 48.8247 16.6887 48.7738C16.5905 48.7229 16.4745 48.6974 16.3407 48.6974C16.2153 48.6974 16.0969 48.7205 15.9856 48.7667C15.8755 48.8117 15.7856 48.8774 15.7157 48.9638C15.6459 49.049 15.608 49.152 15.6021 49.2727H15.176C15.1831 49.0821 15.2405 48.9152 15.3482 48.772C15.4559 48.6276 15.5968 48.5152 15.7708 48.4347C15.946 48.3542 16.1383 48.3139 16.3478 48.3139C16.5727 48.3139 16.7657 48.3595 16.9267 48.4506C17.0877 48.5406 17.2114 48.6596 17.2978 48.8075C17.3842 48.9555 17.4274 49.1153 17.4274 49.2869C17.4274 49.4917 17.3735 49.6663 17.2658 49.8107C17.1593 49.9551 17.0143 50.0552 16.8308 50.1108V50.1392C17.0604 50.1771 17.2398 50.2747 17.3688 50.4322C17.4978 50.5884 17.5623 50.782 17.5623 51.0128C17.5623 51.2105 17.5085 51.388 17.4007 51.5455C17.2942 51.7017 17.1486 51.8248 16.964 51.9148C16.7793 52.0047 16.5692 52.0497 16.3336 52.0497ZM18.6081 49.2727L19.2615 50.3878L19.915 49.2727H20.3979L19.5172 50.6364L20.3979 52H19.915L19.2615 50.9418L18.6081 52H18.1252L18.9917 50.6364L18.1252 49.2727H18.6081Z" fill="#F3F3F8"/>
<path d="M45.1605 48.3636V52H44.7202V48.7543H42.8878V52H42.4474V48.3636H45.1605ZM45.7007 52.7812V51.6094H45.928C45.9836 51.5514 46.0316 51.4886 46.0718 51.4212C46.1121 51.3537 46.147 51.2738 46.1766 51.1815C46.2074 51.0879 46.2334 50.9743 46.2547 50.8406C46.276 50.7056 46.295 50.5429 46.3115 50.3523L46.4039 49.2727H48.1368V51.6094H48.5558V52.7812H48.1368V52H46.1198V52.7812H45.7007ZM46.4039 51.6094H47.7178V49.6634H46.7945L46.7235 50.3523C46.6939 50.6375 46.6572 50.8867 46.6134 51.0998C46.5696 51.3129 46.4997 51.4827 46.4039 51.6094ZM52.095 49.5H51.6547C51.6286 49.3733 51.583 49.2621 51.5179 49.1662C51.454 49.0703 51.3759 48.9898 51.2836 48.9247C51.1924 48.8584 51.0912 48.8087 50.9799 48.7756C50.8687 48.7424 50.7527 48.7259 50.6319 48.7259C50.4118 48.7259 50.2123 48.7815 50.0336 48.8928C49.856 49.004 49.7145 49.168 49.6092 49.3846C49.505 49.6012 49.4529 49.867 49.4529 50.1818C49.4529 50.4967 49.505 50.7624 49.6092 50.979C49.7145 51.1957 49.856 51.3596 50.0336 51.4709C50.2123 51.5821 50.4118 51.6378 50.6319 51.6378C50.7527 51.6378 50.8687 51.6212 50.9799 51.5881C51.0912 51.5549 51.1924 51.5058 51.2836 51.4407C51.3759 51.3744 51.454 51.2933 51.5179 51.1974C51.583 51.1004 51.6286 50.9891 51.6547 50.8636H52.095C52.0618 51.0495 52.0015 51.2158 51.9139 51.3626C51.8263 51.5094 51.7174 51.6342 51.5872 51.7372C51.457 51.839 51.3108 51.9165 51.1486 51.9698C50.9876 52.0231 50.8154 52.0497 50.6319 52.0497C50.3218 52.0497 50.046 51.974 49.8045 51.8224C49.563 51.6709 49.373 51.4555 49.2346 51.1761C49.0961 50.8968 49.0268 50.5653 49.0268 50.1818C49.0268 49.7983 49.0961 49.4669 49.2346 49.1875C49.373 48.9081 49.563 48.6927 49.8045 48.5412C50.046 48.3897 50.3218 48.3139 50.6319 48.3139C50.8154 48.3139 50.9876 48.3406 51.1486 48.3938C51.3108 48.4471 51.457 48.5252 51.5872 48.6282C51.7174 48.73 51.8263 48.8543 51.9139 49.0011C52.0015 49.1467 52.0618 49.313 52.095 49.5ZM53.0622 49.2727L53.7156 50.3878L54.3691 49.2727H54.852L53.9713 50.6364L54.852 52H54.3691L53.7156 50.9418L53.0622 52H52.5793L53.4458 50.6364L52.5793 49.2727H53.0622Z" fill="#F3F3F8"/>
<path d="M45.1605 11.3636V15H44.7202V11.7543H42.8878V15H42.4474V11.3636H45.1605ZM47.8172 13.4446V13.8352H46.3115V13.4446H47.8172ZM46.411 12.2727V15H45.9919V12.2727H46.411ZM48.1368 12.2727V15H47.7178V12.2727H48.1368ZM51.885 12.5H51.4447C51.4186 12.3733 51.3731 12.2621 51.308 12.1662C51.2441 12.0703 51.1659 11.9898 51.0736 11.9247C50.9825 11.8584 50.8812 11.8087 50.77 11.7756C50.6587 11.7424 50.5427 11.7259 50.422 11.7259C50.2018 11.7259 50.0023 11.7815 49.8236 11.8928C49.646 12.004 49.5046 12.168 49.3992 12.3846C49.2951 12.6012 49.243 12.867 49.243 13.1818C49.243 13.4967 49.2951 13.7624 49.3992 13.979C49.5046 14.1957 49.646 14.3596 49.8236 14.4709C50.0023 14.5821 50.2018 14.6378 50.422 14.6378C50.5427 14.6378 50.6587 14.6212 50.77 14.5881C50.8812 14.5549 50.9825 14.5058 51.0736 14.4407C51.1659 14.3744 51.2441 14.2933 51.308 14.1974C51.3731 14.1004 51.4186 13.9891 51.4447 13.8636H51.885C51.8519 14.0495 51.7915 14.2158 51.7039 14.3626C51.6163 14.5094 51.5074 14.6342 51.3772 14.7372C51.247 14.839 51.1008 14.9165 50.9387 14.9698C50.7777 15.0231 50.6054 15.0497 50.422 15.0497C50.1118 15.0497 49.836 14.974 49.5945 14.8224C49.3531 14.6709 49.1631 14.4555 49.0246 14.1761C48.8861 13.8968 48.8169 13.5653 48.8169 13.1818C48.8169 12.7983 48.8861 12.4669 49.0246 12.1875C49.1631 11.9081 49.3531 11.6927 49.5945 11.5412C49.836 11.3897 50.1118 11.3139 50.422 11.3139C50.6054 11.3139 50.7777 11.3406 50.9387 11.3938C51.1008 11.4471 51.247 11.5252 51.3772 11.6282C51.5074 11.73 51.6163 11.8543 51.7039 12.0011C51.7915 12.1467 51.8519 12.313 51.885 12.5ZM52.8523 12.2727L53.5057 13.3878L54.1591 12.2727H54.642L53.7614 13.6364L54.642 15H54.1591L53.5057 13.9418L52.8523 15H52.3693L53.2358 13.6364L52.3693 12.2727H52.8523Z" fill="#F3F3F8"/>
</svg>
